<?xml version="1.0" encoding="UTF-8" standalone="no"?>
<svg width="266px" height="266px" viewBox="0 0 266 266" version="1.1" xmlns="http://www.w3.org/2000/svg" xmlns:xlink="http://www.w3.org/1999/xlink">
    <!-- Generator: Sketch 3.8.3 (29802) - http://www.bohemiancoding.com/sketch -->
    <title>Group 3</title>
    <desc>Created with Sketch.</desc>
    <defs></defs>
    <g id="Page-1" stroke="none" stroke-width="1" fill="none" fill-rule="evenodd">
        <g id="Group-3">
            <path d="M243.605191,40.8220337 C243.605191,30.5167753 235.248607,22.1661685 224.946337,22.1661685 C220.270416,22.1661685 216.011427,23.8966629 212.735742,26.7389775 C190.488876,9.96005618 162.82936,0 132.883438,0 C59.6108989,0 0,59.6123933 0,132.884933 C0,206.155978 59.6123933,265.769865 132.884933,265.769865 C206.157472,265.769865 265.768371,206.155978 265.768371,132.884933 C265.768371,102.939011 255.808315,75.2794944 239.030888,53.0311348 C241.873202,49.7584382 243.605191,45.4964607 243.605191,40.8220337 L243.605191,40.8220337 Z M132.883438,261.298674 C62.0766292,261.298674 4.46820225,203.690247 4.46820225,132.883438 C4.46820225,62.0766292 62.0766292,4.46820225 132.883438,4.46820225 C161.674202,4.46820225 188.278685,13.9933933 209.720079,30.0565056 C207.56518,33.0990674 206.287483,36.8081236 206.287483,40.8205393 C206.287483,51.1243034 214.641079,59.4749101 224.943348,59.4749101 C228.957258,59.4749101 232.661831,58.1972135 235.705888,56.0423146 C251.769,77.4837079 261.294191,104.088191 261.294191,132.881944 C261.29718,203.690247 203.691742,261.298674 132.883438,261.298674 L132.883438,261.298674 Z" id="Shape" fill="#FCCA3F"></path>
            <path d="M132.66289,207.325781 C173.898066,207.325781 207.325781,173.898066 207.325781,132.66289 C207.325781,91.4277147 173.898066,58 132.66289,58 C91.4277147,58 58,91.4277147 58,132.66289 C58,173.898066 91.4277147,207.325781 132.66289,207.325781 Z M124.648634,105.00616 L114.115452,85.2211511 C113.076415,83.2697665 110.1513,83.7631442 109.810308,85.9475672 L97,159.272727 L124.648634,105.00616 Z M135.555523,99.0466113 L142.970889,113.202632 L100.315901,158.354647 L131.362923,99.0466112 C132.230482,97.3726958 134.678685,97.3775136 135.555523,99.0466113 Z M159.766759,106.196969 C159.477938,104.417824 157.648955,103.681605 156.375557,104.957305 L98.0909091,163.185149 L130.128693,181.092456 C132.160357,182.226844 134.634726,182.227375 136.666921,181.094049 L169,163.061595 L159.766759,106.196969 Z" id="Combined-Shape" fill="#FCCA3F"></path>
            <circle id="Oval-4" stroke="#FCCA3F" stroke-width="5" cx="133" cy="133" r="130"></circle>
        </g>
    </g>
</svg>